<mxfile host="app.diagrams.net" modified="2024-03-25T11:31:07.950Z" agent="Mozilla/5.0 (Macintosh; Intel Mac OS X 10_15_7) AppleWebKit/537.36 (KHTML, like Gecko) Chrome/120.0.0.0 Safari/537.36" version="22.1.18" etag="II9UdlfLPo1k9k3J2Rvq" type="github">
  <diagram name="Страница — 1" id="30DbMFjesmogVa4loWzc">
    <mxGraphModel>
      <root>
        <mxCell id="0" />
        <mxCell id="1" parent="0" />
      </root>
    </mxGraphModel>
  </diagram>
</mxfile>
